<svg width="32" height="32" viewBox="0 0 32 32" fill="none" xmlns="http://www.w3.org/2000/svg">
<g id="Person">
<mask id="mask0_230_111" style="mask-type:alpha" maskUnits="userSpaceOnUse" x="0" y="0" width="32" height="32">
<rect id="Bounding box" width="32" height="32" fill="#D9D9D9"/>
</mask>
<g mask="url(#mask0_230_111)">
<path id="person_add" d="M24.1666 14.3333H21.1666C20.8833 14.3333 20.6458 14.2374 20.4541 14.0457C20.2624 13.8539 20.1666 13.6163 20.1666 13.3329C20.1666 13.0494 20.2624 12.812 20.4541 12.6205C20.6458 12.4291 20.8833 12.3334 21.1666 12.3334H24.1666V9.33334C24.1666 9.05 24.2625 8.8125 24.4542 8.62084C24.646 8.42919 24.8836 8.33337 25.167 8.33337C25.4505 8.33337 25.688 8.42919 25.8794 8.62084C26.0708 8.8125 26.1666 9.05 26.1666 9.33334V12.3334H29.1666C29.4499 12.3334 29.6874 12.4292 29.8791 12.621C30.0707 12.8127 30.1666 13.0503 30.1666 13.3338C30.1666 13.6172 30.0707 13.8547 29.8791 14.0461C29.6874 14.2376 29.4499 14.3333 29.1666 14.3333H26.1666V17.3333C26.1666 17.6167 26.0707 17.8542 25.8789 18.0458C25.6872 18.2375 25.4496 18.3333 25.1661 18.3333C24.8827 18.3333 24.6452 18.2375 24.4538 18.0458C24.2623 17.8542 24.1666 17.6167 24.1666 17.3333V14.3333ZM11.9999 15.5897C10.7166 15.5897 9.61802 15.1328 8.70413 14.2189C7.79024 13.305 7.3333 12.2064 7.3333 10.9231C7.3333 9.63977 7.79024 8.54117 8.70413 7.6273C9.61802 6.71341 10.7166 6.25647 11.9999 6.25647C13.2832 6.25647 14.3818 6.71341 15.2957 7.6273C16.2096 8.54117 16.6666 9.63977 16.6666 10.9231C16.6666 12.2064 16.2096 13.305 15.2957 14.2189C14.3818 15.1328 13.2832 15.5897 11.9999 15.5897ZM2 23.7179V22.7795C2 22.1265 2.17733 21.5218 2.532 20.9654C2.88671 20.409 3.36064 19.9812 3.9538 19.6821C5.27176 19.0359 6.60124 18.5513 7.94227 18.2282C9.28329 17.9052 10.6358 17.7436 11.9999 17.7436C13.364 17.7436 14.7166 17.9052 16.0576 18.2282C17.3986 18.5513 18.7281 19.0359 20.0461 19.6821C20.6392 19.9812 21.1131 20.409 21.4678 20.9654C21.8225 21.5218 21.9999 22.1265 21.9999 22.7795V23.7179C21.9999 24.2803 21.8029 24.7585 21.4089 25.1525C21.0149 25.5465 20.5367 25.7435 19.9743 25.7435H4.02557C3.46319 25.7435 2.985 25.5465 2.591 25.1525C2.197 24.7585 2 24.2803 2 23.7179ZM3.99993 23.7436H19.9999V22.7795C19.9999 22.5094 19.9217 22.2594 19.7653 22.0295C19.6089 21.7996 19.3965 21.6119 19.1281 21.4666C17.9794 20.9008 16.8081 20.4722 15.6142 20.1807C14.4203 19.8893 13.2155 19.7436 11.9999 19.7436C10.7843 19.7436 9.57958 19.8893 8.38567 20.1807C7.19176 20.4722 6.02044 20.9008 4.87173 21.4666C4.60336 21.6119 4.39097 21.7996 4.23457 22.0295C4.07814 22.2594 3.99993 22.5094 3.99993 22.7795V23.7436ZM11.9999 13.5898C12.7333 13.5898 13.361 13.3287 13.8833 12.8064C14.4055 12.2842 14.6666 11.6564 14.6666 10.9231C14.6666 10.1898 14.4055 9.56199 13.8833 9.03977C13.361 8.51755 12.7333 8.25644 11.9999 8.25644C11.2666 8.25644 10.6388 8.51755 10.1166 9.03977C9.59438 9.56199 9.33327 10.1898 9.33327 10.9231C9.33327 11.6564 9.59438 12.2842 10.1166 12.8064C10.6388 13.3287 11.2666 13.5898 11.9999 13.5898Z" fill="#F0F2F7"/>
</g>
</g>
</svg>
