<svg width="32" height="32" viewBox="0 0 32 32" fill="currentColor" xmlns="http://www.w3.org/2000/svg">
<g clip-path="url(#clip0_172_9090)">
<mask id="mask0_172_9090" style="mask-type:alpha" maskUnits="userSpaceOnUse" x="0" y="0" width="32" height="32">
<rect width="32" height="32" fill="currentColor"/>
</mask>
<g mask="url(#mask0_172_9090)">
<path d="M16 20.5487C15.8393 20.5487 15.6897 20.523 15.5513 20.4717C15.4128 20.4205 15.2812 20.3324 15.1564 20.2076L11.0103 16.0615C10.812 15.8632 10.7141 15.6312 10.7167 15.3654C10.7193 15.0996 10.8171 14.8633 11.0103 14.6564C11.2171 14.4496 11.4547 14.3428 11.7231 14.3359C11.9914 14.3291 12.2291 14.4291 12.4359 14.6359L15 17.2V7C15 6.71624 15.0957 6.47865 15.2872 6.2872C15.4786 6.09573 15.7162 6 16 6C16.2837 6 16.5213 6.09573 16.7128 6.2872C16.9042 6.47865 16.9999 6.71624 16.9999 7V17.2L19.564 14.6359C19.7623 14.4376 19.9978 14.3398 20.2704 14.3423C20.5431 14.3449 20.7828 14.4496 20.9897 14.6564C21.1828 14.8633 21.2828 15.0975 21.2896 15.359C21.2965 15.6205 21.1965 15.8547 20.9897 16.0615L16.8435 20.2076C16.7188 20.3324 16.5871 20.4205 16.4487 20.4717C16.3102 20.523 16.1607 20.5487 16 20.5487ZM8.41027 25.9999C7.73676 25.9999 7.16667 25.7666 6.7 25.2999C6.23333 24.8333 6 24.2632 6 23.5897V20.9743C6 20.6905 6.09573 20.4529 6.2872 20.2615C6.47864 20.0701 6.71624 19.9743 7 19.9743C7.28376 19.9743 7.52136 20.0701 7.7128 20.2615C7.90424 20.4529 7.99997 20.6905 7.99997 20.9743V23.5897C7.99997 23.6922 8.0427 23.7863 8.12817 23.8718C8.21366 23.9572 8.30769 24 8.41027 24H23.5897C23.6922 24 23.7863 23.9572 23.8718 23.8718C23.9572 23.7863 24 23.6922 24 23.5897V20.9743C24 20.6905 24.0957 20.4529 24.2871 20.2615C24.4786 20.0701 24.7162 19.9743 24.9999 19.9743C25.2837 19.9743 25.5213 20.0701 25.7127 20.2615C25.9042 20.4529 25.9999 20.6905 25.9999 20.9743V23.5897C25.9999 24.2632 25.7666 24.8333 25.2999 25.2999C24.8333 25.7666 24.2632 25.9999 23.5897 25.9999H8.41027Z" fill="currentColor"/>
</g>
</g>
<defs>
<clipPath id="clip0_172_9090">
<rect width="32" height="32" fill="currentColor"/>
</clipPath>
</defs>
</svg>
