<svg width="190" height="60" viewBox="0 0 190 60" fill="none" xmlns="http://www.w3.org/2000/svg">
<path d="M0 30L15.6975 30.7889C18.4955 30.9295 21.2793 31.2775 24.026 31.8301L24.4166 31.9087C26.1236 32.2521 27.7098 33.0419 29.0142 34.1979C31.8483 36.7097 33.0022 40.6237 31.9852 44.2764L27.6076 60L35.2396 44.1126C38.264 37.8168 46.6644 36.5535 51.3984 41.6825L60 51.0017L51.764 38.0417C48.6465 33.1361 48.6465 26.8639 51.764 21.9583L60 8.99831L51.3984 18.3175C46.6644 23.4465 38.264 22.1831 35.2396 15.8873L27.6076 0L31.9852 15.7237C33.0022 19.3763 31.8484 23.2903 29.0143 25.802C27.7098 26.9581 26.1236 27.7479 24.4165 28.0913L24.0256 28.1699C21.2791 28.7224 18.4956 29.0704 15.6979 29.211L0 30Z" fill="#2447B2"/>
<path d="M78.7536 40.5H74.7888V16.98H79.1568L90.0768 33.948V16.98H94.0416V40.5H89.6736L78.7536 23.532V40.5ZM102.047 30.2856H111.287C110.985 28.0008 109.271 26.4888 106.818 26.4888C104.433 26.4888 102.652 27.9672 102.047 30.2856ZM107.053 40.9704C101.812 40.9704 98.1495 37.308 98.1495 32.1C98.1495 26.8584 101.879 23.2296 106.919 23.2296C111.791 23.2296 115.117 26.5896 115.117 31.4952C115.117 31.9992 115.084 32.5368 114.983 33.1752H101.946C102.349 35.8968 104.298 37.6104 107.087 37.6104C109.036 37.6104 110.581 36.7704 111.589 35.124L114.345 37.2744C112.665 39.6936 110.178 40.9704 107.053 40.9704ZM118.313 23.7H122.143V33.276C122.143 35.8968 123.353 37.4424 125.604 37.4424C127.956 37.4424 129.602 35.796 129.602 32.94V23.7H133.433V40.5H129.602V38.3496C128.426 40.0968 126.746 40.9704 124.596 40.9704C120.833 40.9704 118.313 38.2824 118.313 34.2168V23.7ZM146.308 23.4984H147.35V26.9928H146.409C143.452 26.9928 141.638 28.4376 141.638 32.0664V40.5H137.807V23.7H141.638V26.3208C142.545 24.4392 144.091 23.4984 146.308 23.4984ZM150.211 40.5V23.7H154.041V40.5H150.211ZM152.159 20.5416H152.092C150.782 20.5416 149.74 19.5672 149.74 18.2232C149.74 16.8456 150.782 15.8712 152.092 15.8712H152.159C153.47 15.8712 154.478 16.8456 154.478 18.2232C154.478 19.5672 153.47 20.5416 152.159 20.5416ZM163.386 27.1272V33.5448C163.386 36.0648 164.428 37.1064 166.78 37.1064H167.956V40.7016H166.276C161.74 40.7016 159.556 38.484 159.556 33.8472V27.1272H156.734V23.7H159.556V18.996H163.386V23.7H167.822V27.1272H163.386ZM173.874 30.2856H183.114C182.811 28.0008 181.098 26.4888 178.645 26.4888C176.259 26.4888 174.478 27.9672 173.874 30.2856ZM178.88 40.9704C173.638 40.9704 169.976 37.308 169.976 32.1C169.976 26.8584 173.706 23.2296 178.746 23.2296C183.618 23.2296 186.944 26.5896 186.944 31.4952C186.944 31.9992 186.91 32.5368 186.81 33.1752H173.773C174.176 35.8968 176.125 37.6104 178.914 37.6104C180.862 37.6104 182.408 36.7704 183.416 35.124L186.171 37.2744C184.491 39.6936 182.005 40.9704 178.88 40.9704Z" fill="#080C1A"/>
</svg>
