<svg width="236" height="78" viewBox="0 0 236 78" fill="none" xmlns="http://www.w3.org/2000/svg">
<path d="M0.316406 38.9998L20.6168 40.0175C24.2352 40.1989 27.8352 40.6478 31.3873 41.3607L31.8924 41.462C34.1 41.9051 36.1512 42.9239 37.8381 44.4152V44.4152C41.5033 47.6553 42.9954 52.7044 41.6803 57.4164L36.019 77.6998L45.889 57.2051C49.8002 49.0835 60.6637 47.4538 66.7858 54.0702L77.9096 66.092L67.2586 49.3736C63.227 43.0453 63.227 34.9543 67.2586 28.626L77.9096 11.9076L66.7858 23.9293C60.6637 30.5457 49.8002 28.916 45.889 20.7945L36.019 0.299805L41.6803 20.5833C42.9954 25.2952 41.5033 30.3443 37.8382 33.5844V33.5844C36.1512 35.0757 34.1 36.0945 31.8923 36.5375L31.3868 36.639C27.835 37.3517 24.2353 37.8006 20.6173 37.982L0.316406 38.9998Z" fill="#1C27E1"/>
<path d="M95.8 54V25.2H100.02L114.26 46.74V25.2H118.46V54H114.26L100.02 32.46V54H95.8ZM133.462 50.7C134.836 50.7 135.969 50.4133 136.862 49.84C137.769 49.2533 138.489 48.3933 139.022 47.26L143.142 48.52C142.289 50.4667 141.022 51.9667 139.342 53.02C137.676 54.0733 135.716 54.6 133.462 54.6C131.862 54.6 130.409 54.3267 129.102 53.78C127.809 53.22 126.696 52.44 125.762 51.44C124.829 50.44 124.109 49.24 123.602 47.84C123.096 46.44 122.842 44.8933 122.842 43.2C122.842 41.48 123.096 39.92 123.602 38.52C124.109 37.12 124.829 35.92 125.762 34.92C126.696 33.92 127.809 33.1533 129.102 32.62C130.409 32.0733 131.849 31.8 133.422 31.8C135.102 31.8 136.589 32.0933 137.882 32.68C139.176 33.2667 140.249 34.1067 141.102 35.2C141.969 36.28 142.596 37.6 142.982 39.16C143.382 40.7067 143.529 42.4467 143.422 44.38H127.342C127.529 46.3933 128.156 47.9533 129.222 49.06C130.289 50.1533 131.702 50.7 133.462 50.7ZM139.122 41.12C138.976 39.3333 138.409 37.96 137.422 37C136.436 36.04 135.102 35.56 133.422 35.56C131.756 35.56 130.409 36.04 129.382 37C128.369 37.96 127.722 39.3333 127.442 41.12H139.122ZM151.709 44.28C151.709 46.4133 152.183 48.0133 153.129 49.08C154.089 50.1333 155.429 50.66 157.149 50.66C158.003 50.66 158.769 50.5267 159.449 50.26C160.129 49.9933 160.709 49.6 161.189 49.08C161.669 48.5467 162.036 47.88 162.289 47.08C162.543 46.28 162.669 45.3467 162.669 44.28V32.4H166.869V54H162.669V51.02C162.416 51.5133 162.096 51.98 161.709 52.42C161.323 52.8467 160.863 53.2267 160.329 53.56C159.809 53.88 159.203 54.1333 158.509 54.32C157.816 54.5067 157.029 54.6 156.149 54.6C154.856 54.6 153.676 54.4067 152.609 54.02C151.556 53.6467 150.649 53.0733 149.889 52.3C149.129 51.5133 148.543 50.5267 148.129 49.34C147.716 48.14 147.509 46.7267 147.509 45.1V32.4H151.709V44.28ZM184.061 35.88C183.554 35.7867 182.907 35.74 182.121 35.74C181.267 35.74 180.501 35.8733 179.821 36.14C179.141 36.4067 178.561 36.8067 178.081 37.34C177.601 37.86 177.234 38.52 176.981 39.32C176.727 40.12 176.601 41.0533 176.601 42.12V54H172.421V32.4H176.601V35.38C176.867 34.8867 177.187 34.4267 177.561 34C177.947 33.56 178.401 33.18 178.921 32.86C179.454 32.5267 180.067 32.2667 180.761 32.08C181.467 31.8933 182.261 31.8 183.141 31.8C183.287 31.8 183.441 31.8067 183.601 31.82C183.761 31.82 183.914 31.8267 184.061 31.84V35.88ZM188.27 28.86V24.8H192.45V28.86H188.27ZM188.27 54V32.4H192.45V54H188.27ZM196.056 32.4H200.196V25.2H204.396V32.4H210.816V36.32H204.396V47.22C204.396 48.3 204.623 49.0733 205.076 49.54C205.543 50.0067 206.31 50.24 207.376 50.24H210.816V54H206.456C205.483 54 204.603 53.8667 203.816 53.6C203.043 53.3333 202.39 52.9533 201.856 52.46C201.323 51.9533 200.91 51.34 200.616 50.62C200.336 49.9 200.196 49.08 200.196 48.16V36.32H196.056V32.4ZM224.204 50.7C225.578 50.7 226.711 50.4133 227.604 49.84C228.511 49.2533 229.231 48.3933 229.764 47.26L233.884 48.52C233.031 50.4667 231.764 51.9667 230.084 53.02C228.418 54.0733 226.458 54.6 224.204 54.6C222.604 54.6 221.151 54.3267 219.844 53.78C218.551 53.22 217.438 52.44 216.504 51.44C215.571 50.44 214.851 49.24 214.344 47.84C213.838 46.44 213.584 44.8933 213.584 43.2C213.584 41.48 213.838 39.92 214.344 38.52C214.851 37.12 215.571 35.92 216.504 34.92C217.438 33.92 218.551 33.1533 219.844 32.62C221.151 32.0733 222.591 31.8 224.164 31.8C225.844 31.8 227.331 32.0933 228.624 32.68C229.918 33.2667 230.991 34.1067 231.844 35.2C232.711 36.28 233.338 37.6 233.724 39.16C234.124 40.7067 234.271 42.4467 234.164 44.38H218.084C218.271 46.3933 218.898 47.9533 219.964 49.06C221.031 50.1533 222.444 50.7 224.204 50.7ZM229.864 41.12C229.718 39.3333 229.151 37.96 228.164 37C227.178 36.04 225.844 35.56 224.164 35.56C222.498 35.56 221.151 36.04 220.124 37C219.111 37.96 218.464 39.3333 218.184 41.12H229.864Z" fill="#04112C"/>
</svg>
